<?xml version="1.0" standalone="no"?>
<!DOCTYPE svg PUBLIC "-//W3C//DTD SVG 20010904//EN"
 "http://www.w3.org/TR/2001/REC-SVG-20010904/DTD/svg10.dtd">
<svg version="1.0" xmlns="http://www.w3.org/2000/svg"
 width="1280.000000pt" height="438.000000pt" viewBox="0 0 1280.000000 438.000000"
 preserveAspectRatio="xMidYMid meet">
<metadata>
Created by potrace 1.15, written by Peter Selinger 2001-2017
</metadata>
<g transform="translate(0.000000,438.000000) scale(0.100000,-0.100000)"
fill="#000000" stroke="none">
<path d="M5715 4100 c-148 -59 -269 -229 -305 -431 -19 -102 -14 -263 9 -364
42 -173 146 -322 269 -382 49 -24 69 -28 142 -28 74 0 93 4 143 30 114 57 218
200 262 360 9 33 19 114 22 181 11 233 -53 420 -188 552 -66 64 -136 95 -228
99 -59 2 -87 -1 -126 -17z"/>
<path d="M6851 3989 c-166 -84 -328 -312 -360 -509 -23 -141 -3 -310 48 -414
39 -80 101 -142 181 -180 61 -29 72 -31 180 -31 107 0 119 2 175 29 85 41 198
158 252 261 23 44 54 122 69 174 48 169 22 327 -78 477 -93 139 -208 216 -333
222 -62 3 -77 0 -134 -29z"/>
<path d="M4816 3194 c-105 -33 -185 -110 -247 -239 -77 -160 -107 -365 -75
-515 37 -172 139 -321 264 -382 113 -56 270 -50 397 14 101 52 165 132 212
264 26 75 27 89 28 259 0 165 -2 185 -24 245 -96 262 -342 419 -555 354z"/>
<path d="M7499 2906 c-146 -39 -244 -159 -285 -351 -21 -98 -23 -370 -5 -460
31 -144 114 -252 229 -295 87 -33 216 -46 312 -32 148 21 241 88 301 216 44
95 59 180 59 353 0 134 -3 161 -25 231 -41 131 -134 250 -234 301 -94 49 -250
65 -352 37z"/>
<path d="M6130 2495 c-91 -25 -215 -93 -284 -157 -39 -35 -96 -105 -141 -173
-42 -62 -114 -155 -158 -206 -90 -102 -277 -275 -401 -371 -295 -228 -420
-434 -420 -688 1 -279 141 -537 348 -639 114 -56 172 -64 436 -58 234 6 256 9
540 62 173 33 454 17 625 -36 203 -62 485 -86 649 -55 273 52 419 195 492 484
62 244 5 498 -145 651 -31 31 -114 106 -186 166 -245 207 -480 456 -635 675
-125 176 -236 272 -377 327 -86 33 -255 42 -343 18z m-64 -625 l94 0 0 -676 0
-675 -302 3 c-296 3 -304 4 -358 27 -218 97 -304 237 -302 492 1 72 6 109 22
148 49 125 141 226 259 284 66 32 67 32 244 35 l177 4 0 177 c0 98 3 181 7
185 5 4 21 5 37 2 16 -3 71 -6 122 -6z m494 -718 c0 -328 0 -329 23 -350 37
-35 73 -42 208 -42 l129 0 0 360 0 360 140 0 140 0 -2 -477 -3 -478 -330 0
-330 0 -56 26 c-69 33 -133 89 -162 143 -21 40 -22 53 -25 400 -2 198 -1 365
2 373 4 10 36 13 136 13 l130 0 0 -328z"/>
<path d="M5609 1270 c-20 -11 -55 -40 -77 -65 -32 -37 -44 -61 -57 -118 -26
-112 -3 -207 64 -275 59 -59 83 -66 229 -70 l132 -4 0 276 0 276 -127 0 c-106
-1 -134 -4 -164 -20z"/>
<path d="M11370 2320 l0 -70 -445 0 -445 0 0 -1000 0 -1000 165 0 165 0 0 865
0 865 855 0 855 0 0 130 0 130 -390 0 -390 0 0 75 0 75 -185 0 -185 0 0 -70z"/>
<path d="M240 1280 l0 -1041 688 4 c623 3 693 5 747 21 229 68 364 215 394
429 5 34 5 106 1 159 -6 81 -13 110 -42 170 -43 90 -116 171 -196 219 l-61 36
25 14 c41 22 120 114 148 173 14 30 33 83 41 118 17 75 20 225 4 300 -36 174
-167 313 -356 379 -149 52 -149 52 -790 56 l-603 4 0 -1041z m1235 601 c23
-10 53 -33 68 -50 24 -29 27 -40 27 -109 -1 -102 -23 -151 -87 -192 -26 -17
-63 -35 -83 -40 -20 -6 -181 -10 -367 -10 l-333 0 0 210 0 210 368 0 c334 0
371 -2 407 -19z m-41 -825 c62 -19 121 -60 148 -104 45 -73 16 -212 -56 -267
-69 -52 -90 -55 -472 -55 l-354 0 0 220 0 220 343 0 c270 0 354 -3 391 -14z"/>
<path d="M3890 2105 l0 -195 220 0 220 0 0 195 0 195 -220 0 -220 0 0 -195z"/>
<path d="M8280 2095 l0 -155 421 0 c333 0 420 -3 416 -12 -2 -7 -20 -48 -38
-90 l-33 -78 -363 0 -363 0 0 -755 0 -755 888 0 c998 0 934 -5 979 75 l23 40
0 698 0 697 -359 0 -360 0 31 90 30 90 354 0 354 0 0 155 0 155 -990 0 -990 0
0 -155z m1590 -765 l0 -160 -590 0 -590 0 0 160 0 160 590 0 590 0 0 -160z m0
-608 c0 -117 -3 -152 -16 -170 l-15 -22 -575 0 -574 0 0 170 0 170 590 0 590
0 0 -148z"/>
<path d="M11050 1885 l0 -55 -100 0 -100 0 0 -115 0 -115 100 0 100 0 0 -215
0 -215 553 0 c333 0 566 4 588 10 19 5 47 22 62 37 48 51 57 90 57 243 l0 140
115 0 115 0 0 115 0 115 -115 0 -115 0 0 55 0 55 -160 0 -160 0 0 -55 0 -55
-320 0 -320 0 0 55 0 55 -150 0 -150 0 0 -55z m940 -360 c0 -67 -3 -79 -25
-100 l-24 -25 -296 0 -295 0 0 100 0 100 320 0 320 0 0 -75z"/>
<path d="M2270 1600 l0 -160 400 0 c370 0 404 -1 450 -19 109 -41 150 -95 150
-195 l0 -55 -387 -3 -388 -3 -68 -32 c-92 -44 -183 -135 -226 -227 -61 -127
-63 -319 -4 -427 33 -61 114 -139 179 -172 113 -57 108 -57 736 -57 l578 0 -2
563 -3 563 -38 77 c-51 103 -138 191 -238 239 -133 65 -163 68 -678 68 l-461
0 0 -160z m1000 -885 l0 -155 -294 0 c-288 0 -294 0 -327 23 -83 56 -101 136
-46 208 60 78 64 79 384 79 l283 0 0 -155z"/>
<path d="M3890 1010 l0 -750 220 0 220 0 0 750 0 750 -220 0 -220 0 0 -750z"/>
<path d="M10890 983 l0 -118 213 -122 c309 -179 284 -161 258 -179 -11 -8 -53
-28 -92 -45 -70 -28 -76 -29 -245 -29 l-174 0 0 -115 0 -115 241 0 c274 0 291
3 495 99 80 38 105 46 113 37 18 -21 107 -66 183 -92 69 -23 81 -24 350 -24
l278 0 0 114 0 115 -227 3 -228 3 -64 30 -64 30 289 166 289 167 3 96 3 96
-811 0 -810 0 0 -117z m892 -183 l-133 -69 -122 69 -122 70 255 0 255 0 -133
-70z"/>
</g>
</svg>
