<?xml version="1.0" encoding="UTF-8"?>
<svg width="118px" height="22px" viewBox="0 0 118 22" version="1.1" xmlns="http://www.w3.org/2000/svg" xmlns:xlink="http://www.w3.org/1999/xlink">
    <!-- Generator: Sketch 49.2 (51160) - http://www.bohemiancoding.com/sketch -->
    <title>Baidu-button-white</title>
    <desc>Created with Sketch.</desc>
    <defs></defs>
    <g id="Page-1" stroke="none" stroke-width="1" fill="none" fill-rule="evenodd">
        <g id="Baidu-XO-buttons" transform="translate(-583.000000, -157.000000)" fill="#FFFFFF" fill-rule="nonzero">
            <g id="Group-6-Copy" transform="translate(482.000000, 143.000000)">
                <g id="Baidu-button-white" transform="translate(101.946903, 14.270270)">
                    <g id="Page-1">
                        <g id="Group">
                            <path d="M9.56106195,9.70540541 L6.87610619,12.0324324 C6.81061947,12.0891892 6.81061947,12.1459459 6.81061947,12.2027027 C6.81061947,12.2594595 6.87610619,12.3162162 6.87610619,12.372973 L9.56106195,14.7 C9.62654867,14.7567568 9.6920354,14.7567568 9.75752212,14.7567568 C9.82300885,14.7567568 9.88849558,14.7 9.9539823,14.7 L12.6389381,12.372973 C12.7044248,12.3162162 12.7044248,12.2594595 12.7044248,12.2027027 C12.7044248,12.1459459 12.7044248,12.0891892 12.6389381,12.0324324 L9.9539823,9.70540541 C9.88849558,9.64864865 9.82300885,9.64864865 9.75752212,9.64864865 C9.6920354,9.59189189 9.62654867,9.64864865 9.56106195,9.70540541" id="Fill-1"></path>
                            <path d="M0.261946903,0.737837838 C0.720353982,2.66756757 2.35752212,4.2 4.45309735,4.76756757 C4.5840708,4.76756757 4.5840708,4.82432432 4.5840708,4.88108108 C4.5840708,4.93783784 4.5840708,4.99459459 4.51858407,4.99459459 C1.83362832,6.52702703 0,9.19459459 0,12.2027027 C0,16.9135135 4.38761062,20.772973 9.82300885,20.772973 C15.2584071,20.772973 19.6460177,16.9702703 19.6460177,12.2027027 C19.6460177,8.91081081 16.5681416,6.24324324 12.7699115,6.24324324 C11.9840708,6.24324324 11.1982301,6.35675676 10.4778761,6.58378378 C10.4123894,6.58378378 10.3469027,6.64054054 10.3469027,6.6972973 C10.3469027,6.75405405 10.4123894,6.81081081 10.4778761,6.81081081 C13.5557522,7.09459459 15.9787611,9.36486486 15.9787611,12.1459459 C15.9787611,15.0972973 13.2283186,17.5378378 9.82300885,17.5378378 C6.41769912,17.5378378 3.66725664,15.1540541 3.66725664,12.1459459 C3.66725664,10.5 4.51858407,8.91081081 5.69734513,7.88918919 C7.33451327,6.3 9.62654867,5.05135135 11.9840708,4.14324324 C12.180531,4.08648649 12.3769912,3.97297297 12.5079646,3.97297297 C14.1451327,3.40540541 15.9132743,3.00810811 17.6814159,2.83783784 C17.8123894,2.83783784 17.9433628,2.72432432 17.9433628,2.55405405 C17.8778761,1.41891892 16.8300885,0.510810811 15.4548673,0.510810811 C15.1274336,0.510810811 14.8654867,0.567567568 14.5380531,0.624324324 C11.9840708,1.41891892 9.88849558,1.75945946 7.33451327,1.75945946 C5.63185841,1.75945946 3.92920354,1.58918919 2.35752212,1.24864865 C1.70265487,1.07837838 1.04778761,0.851351351 0.45840708,0.510810811 C0.327433628,0.567567568 0.261946903,0.624324324 0.261946903,0.737837838 Z" id="Fill-3"></path>
                        </g>
                    </g>
                    <g id="Page-1_1_" transform="translate(24.011799, 0.000000)">
                        <path d="M73.7168142,3.85 L74.4063422,3.85 L87.3193215,3.85 C88.1342183,3.85 88.7610619,4.43333333 88.7610619,5.19166667 L88.7610619,8.05 L88.7610619,12.25 L88.7610619,15.4583333 L90.0774336,15.4583333 C90.9550147,15.4583333 91.6445428,14.8166667 91.6445428,14 L91.6445428,12.25 L91.6445428,8.10833333 L91.6445428,3.85 L91.6445428,3.675 C91.6445428,2.56666667 90.6415929,1.63333333 89.45059,1.63333333 L88.7610619,1.63333333 L74.4063422,1.63333333 L74.4063422,0.466666667 L71.5855457,0.466666667 L71.5855457,1.80833333 C71.5228614,2.975 72.5258112,3.85 73.7168142,3.85" id="Fill-4"></path>
                        <path d="M74.4063422,8.63333333 L81.8030973,8.63333333 C81.8030973,8.63333333 81.8030973,8.63333333 81.8030973,8.63333333 C81.8030973,8.63333333 81.8030973,8.63333333 81.8030973,8.63333333 L81.8657817,8.63333333 C82.6179941,8.69166667 83.2448378,9.275 83.2448378,9.975 C83.2448378,9.975 83.2448378,10.0333333 83.2448378,10.0333333 L83.2448378,13.125 L74.4063422,13.125 L74.4063422,8.63333333 Z M86.5044248,18.1416667 L77.979351,18.1416667 L74.3436578,18.0833333 L74.3436578,15.4 L83.119469,15.4 L83.8089971,15.4 C83.8089971,15.4 83.8089971,15.4 83.8716814,15.4 C85.0626844,15.4 86.0656342,14.4666667 86.0656342,13.3583333 C86.0656342,13.3583333 86.0656342,13.3583333 86.0656342,13.3583333 L86.0656342,13.1833333 L86.0656342,8.69166667 L86.0656342,8.51666667 C86.0656342,7.40833333 85.0626844,6.475 83.8716814,6.475 L83.1821534,6.475 L74.3436578,6.475 L73.6541298,6.475 C72.4631268,6.475 71.460177,7.40833333 71.460177,8.51666667 L71.460177,18.4333333 C71.460177,19.5416667 72.4004425,20.475 73.6541298,20.475 L74.3436578,20.475 L77.979351,20.475 L86.5044248,20.475 L91.3311209,20.475 C92.1460177,20.475 92.7728614,19.8916667 92.7728614,19.1333333 L92.7728614,18.2583333 L86.5044248,18.2583333 L86.5044248,18.1416667 Z" id="Fill-6"></path>
                        <path d="M15.7964602,7.7 C16.6113569,7.7 17.2382006,8.28333333 17.2382006,9.04166667 L17.2382006,11.7833333 L3.76106195,11.7833333 L3.76106195,7.7 L15.7964602,7.7 Z M17.2382006,18.1416667 L3.82374631,18.1416667 L3.82374631,14.0583333 L15.7964602,14.0583333 C16.6113569,14.0583333 17.2382006,14.6416667 17.2382006,15.4 L17.2382006,18.1416667 Z M14.229351,0.466666667 L6.9579646,0.466666667 L0,0.466666667 L0,1.34166667 C0,2.1 0.626843658,2.68333333 1.44174041,2.68333333 L6.9579646,2.68333333 L9.46533923,2.68333333 L8.58775811,5.425 L3.88643068,5.425 L3.19690265,5.425 C2.00589971,5.425 1.00294985,6.35833333 1.00294985,7.46666667 L1.00294985,11.8416667 L1.00294985,14.1166667 L1.00294985,18.3166667 C1.00294985,19.425 1.94321534,20.3 3.13421829,20.3583333 L17.8650442,20.3583333 C17.9277286,20.3583333 17.9277286,20.3583333 17.990413,20.3583333 C19.1814159,20.3583333 20.1843658,19.425 20.1843658,18.3166667 L20.1843658,18.1416667 L20.1843658,14.175 L20.1843658,11.9 L20.1843658,7.75833333 L20.1843658,7.58333333 C20.1843658,6.475 19.1814159,5.54166667 17.990413,5.54166667 C17.9277286,5.54166667 17.8650442,5.54166667 17.8650442,5.54166667 L17.3635693,5.54166667 L11.5966077,5.54166667 L12.4741888,2.8 L14.2920354,2.8 L19.8082596,2.8 C20.6231563,2.8 21.25,2.21666667 21.25,1.45833333 L21.25,0.466666667 L14.229351,0.466666667 Z" id="Fill-1_1_"></path>
                        <path d="M43.6910029,6.94166667 L45.070059,6.94166667 L45.070059,4.84166667 L43.6910029,4.84166667 L43.6910029,4.31666667 L40.8702065,4.31666667 L40.8702065,4.84166667 L32.1570796,4.84166667 L32.1570796,4.31666667 L29.3362832,4.31666667 L29.3362832,4.84166667 L27.9572271,4.84166667 L27.9572271,6.88333333 L29.3362832,6.88333333 L29.3362832,8.16666667 L29.3362832,8.34166667 C29.3362832,9.45 30.339233,10.3833333 31.530236,10.3833333 C31.530236,10.3833333 31.530236,10.3833333 31.530236,10.3833333 L32.1570796,10.3833333 L40.8075221,10.3833333 L41.4970501,10.3833333 C41.4970501,10.3833333 41.4970501,10.3833333 41.4970501,10.3833333 C42.6880531,10.3833333 43.6910029,9.45 43.6910029,8.34166667 C43.6910029,8.34166667 43.6910029,8.28333333 43.6910029,8.28333333 L43.6910029,8.16666667 L43.6910029,6.94166667 Z M40.8075221,8.28333333 L32.1570796,8.28333333 L32.1570796,6.88333333 L40.8075221,6.88333333 L40.8075221,8.28333333 Z" id="Shape"></path>
                        <path d="M36.7330383,1.34166667 L36.7330383,0.466666667 L33.8495575,0.466666667 L33.8495575,1.34166667 L26.6408555,1.34166667 L26.0140118,1.34166667 C26.0140118,1.34166667 25.9513274,1.34166667 25.9513274,1.34166667 C25.9513274,1.34166667 25.8886431,1.34166667 25.8886431,1.34166667 L25.8259587,1.34166667 C24.6976401,1.4 23.820059,2.275 23.7573746,3.325 L23.7573746,3.55833333 L23.7573746,20.3583333 L25.0737463,20.3583333 C25.9513274,20.3583333 26.6408555,19.7166667 26.6408555,18.9 L26.6408555,4.95833333 C26.6408555,4.95833333 26.6408555,4.95833333 26.6408555,4.95833333 C26.6408555,4.2 27.2676991,3.61666667 28.0825959,3.61666667 L44.9446903,3.61666667 L44.9446903,1.34166667 L36.7330383,1.34166667 Z" id="Fill-11"></path>
                        <path d="M44.6939528,13.475 C44.8820059,13.3 44.9446903,12.95 44.9446903,12.7166667 C44.9446903,12.075 44.380531,11.6083333 43.7536873,11.6083333 L43.0014749,11.6083333 L27.9572271,11.6083333 L27.9572271,13.65 L41.3716814,13.65 C40.7448378,14.2916667 39.4911504,15.2833333 38.4882006,15.8666667 C36.3569322,14.9916667 34.5390855,14.5833333 32.9719764,14.5833333 C31.0287611,14.5833333 29.5870206,14.9333333 28.7094395,15.6916667 C28.7094395,15.6916667 28.7094395,15.6916667 28.7094395,15.6916667 C28.2079646,16.1583333 27.8945428,16.7416667 27.8945428,17.4416667 C27.8945428,18.1416667 28.2079646,18.725 28.6467552,19.1916667 C28.6467552,19.1916667 28.6467552,19.1916667 28.6467552,19.1916667 C29.4616519,19.95 30.840708,20.3583333 32.9719764,20.3583333 C34.6017699,20.3583333 36.9837758,19.6 38.6135693,18.4916667 C39.8045723,19.0166667 40.619469,19.425 42.3119469,20.1833333 C43.189528,20.5916667 43.9417404,20.3583333 44.380531,19.7166667 L44.8820059,18.9583333 C44.8820059,18.9583333 41.3716814,17.325 40.5567847,16.9166667 C42.4373156,15.575 44.5685841,13.65 44.6939528,13.475 M32.3451327,18.9 C30.9033923,18.9 29.5243363,18.4916667 29.5243363,17.3833333 C29.5243363,16.275 31.0914454,15.9833333 32.3451327,15.9833333 C33.5988201,15.9833333 35.980826,17.0333333 36.2942478,17.3833333 C35.980826,17.7916667 33.4734513,18.9 32.3451327,18.9" id="Fill-12"></path>
                        <path d="M50.5235988,0.7 L47.640118,0.7 L47.640118,2.33333333 L47.640118,2.50833333 C47.640118,3.61666667 48.6430678,4.55 49.8340708,4.55 L54.7861357,4.55 L54.7861357,2.33333333 L50.5235988,2.33333333 L50.5235988,0.7 Z" id="Fill-13"></path>
                        <path d="M48.329646,7.7 L48.8311209,7.7 C49.6460177,7.7 50.2728614,8.28333333 50.2728614,9.04166667 C50.2728614,9.04166667 50.2728614,9.04166667 50.2728614,9.04166667 L50.2728614,10.0333333 L48.0789086,10.0333333 L48.0789086,12.25 L48.8311209,12.25 C49.6460177,12.25 50.2728614,12.8333333 50.2728614,13.5916667 C50.2728614,13.5916667 50.2728614,13.5916667 50.2728614,13.65 L50.2728614,17.7916667 L50.2728614,17.9666667 C50.2728614,17.9666667 50.2728614,17.9666667 50.2728614,17.9666667 C50.2728614,17.9666667 50.2728614,17.9666667 50.2728614,17.9666667 C50.2728614,19.075 51.2758112,20.0083333 52.4668142,20.0083333 L54.8488201,20.0083333 L54.8488201,17.7333333 L54.2846608,17.7333333 C53.469764,17.7333333 52.8429204,17.15 52.8429204,16.3916667 L52.8429204,12.25 L54.8488201,12.25 L54.8488201,9.975 L52.8429204,9.975 L52.8429204,7.64166667 L54.8488201,7.64166667 L54.8488201,5.425 L48.329646,5.425 L48.329646,7.7 Z" id="Fill-14"></path>
                        <path d="M68.890118,19.0166667 L68.890118,20.3 C68.890118,20.3 65.8185841,19.425 63.1231563,16.5666667 L59.3620944,18.3166667 C58.609882,18.6666667 57.6696165,18.375 57.2935103,17.675 L56.729351,16.5666667 L61.4306785,14.4083333 C60.5530973,13.0083333 59.800885,11.3166667 59.3620944,9.275 L55.7264012,9.275 L55.7264012,7 L59.0486726,7 C58.9233038,6.41666667 58.9233038,5.775 58.9233038,5.13333333 L58.9233038,4.49166667 L55.6637168,4.49166667 L55.6637168,2.275 L58.9233038,2.275 L58.9233038,0.408333333 L61.6187316,0.408333333 L61.6187316,2.275 L61.9321534,2.275 L66.1320059,2.275 L66.1320059,0.816666667 L68.9528024,0.816666667 L68.9528024,4.375 L68.9528024,4.49166667 L62.6843658,4.49166667 L61.7441003,4.49166667 C61.7441003,4.66666667 61.6814159,5.65833333 61.869469,7.05833333 L69.0154867,7.05833333 L69.0154867,9.33333333 L62.1828909,9.33333333 C62.5589971,10.5583333 63.060472,11.9583333 63.9380531,13.3 L68.890118,11.025 L68.890118,14 L65.6932153,15.4583333 C66.320059,16.1 67.0722714,16.7416667 67.9498525,17.325 C67.9498525,17.2666667 68.8274336,17.6166667 68.890118,19.0166667" id="Fill-15"></path>
                    </g>
                </g>
            </g>
        </g>
    </g>
</svg>