<?xml version="1.0" encoding="UTF-8"?>
<svg width="107px" height="21px" viewBox="0 0 107 21" version="1.1" xmlns="http://www.w3.org/2000/svg" xmlns:xlink="http://www.w3.org/1999/xlink">
    <!-- Generator: Sketch 49.2 (51160) - http://www.bohemiancoding.com/sketch -->
    <title>Baidu-button-color</title>
    <desc>Created with Sketch.</desc>
    <defs></defs>
    <g id="Page-1" stroke="none" stroke-width="1" fill="none" fill-rule="evenodd">
        <g id="Baidu-XO-buttons" transform="translate(-155.000000, -157.000000)" fill-rule="nonzero">
            <g id="Group-2" transform="translate(48.000000, 143.000000)">
                <g id="Baidu-button-color" transform="translate(107.000000, 14.000000)">
                    <g id="Page-1" fill="#E85352">
                        <g id="Group">
                            <path d="M8.76,9.70540541 L6.3,12.0324324 C6.24,12.0891892 6.24,12.1459459 6.24,12.2027027 C6.24,12.2594595 6.3,12.3162162 6.3,12.372973 L8.76,14.7 C8.82,14.7567568 8.88,14.7567568 8.94,14.7567568 C9,14.7567568 9.06,14.7 9.12,14.7 L11.58,12.372973 C11.64,12.3162162 11.64,12.2594595 11.64,12.2027027 C11.64,12.1459459 11.64,12.0891892 11.58,12.0324324 L9.12,9.70540541 C9.06,9.64864865 9,9.64864865 8.94,9.64864865 C8.88,9.59189189 8.82,9.64864865 8.76,9.70540541" id="Fill-1"></path>
                            <path d="M0.42,0.567567568 C0.3,0.567567568 0.24,0.624324324 0.24,0.737837838 C0.24,0.737837838 0.24,0.737837838 0.24,0.794594595 C0.66,2.66756757 2.16,4.2 4.08,4.76756757 C4.2,4.76756757 4.2,4.82432432 4.2,4.88108108 C4.2,4.93783784 4.2,4.99459459 4.14,4.99459459 C1.68,6.52702703 0,9.19459459 0,12.2027027 C0,16.9135135 4.02,20.772973 9,20.772973 C13.98,20.772973 18,16.9702703 18,12.2027027 C18,8.91081081 15.18,6.24324324 11.7,6.24324324 C10.98,6.24324324 10.26,6.35675676 9.6,6.58378378 C9.54,6.58378378 9.48,6.64054054 9.48,6.6972973 C9.48,6.75405405 9.54,6.81081081 9.6,6.81081081 C12.42,7.09459459 14.64,9.36486486 14.64,12.1459459 C14.64,15.0972973 12.12,17.5378378 9,17.5378378 C5.88,17.5378378 3.36,15.1540541 3.36,12.1459459 C3.36,10.5 4.14,8.91081081 5.22,7.88918919 C6.72,6.3 8.82,5.05135135 10.98,4.14324324 C11.16,4.08648649 11.34,3.97297297 11.46,3.97297297 C11.46,3.97297297 11.46,3.97297297 11.46,3.97297297 C12.96,3.40540541 14.58,3.00810811 16.2,2.83783784 C16.32,2.83783784 16.44,2.72432432 16.44,2.55405405 C16.38,1.41891892 15.42,0.510810811 14.16,0.510810811 C13.86,0.510810811 13.62,0.567567568 13.32,0.624324324 C10.98,1.41891892 9.06,1.75945946 6.72,1.75945946 C5.16,1.75945946 3.6,1.58918919 2.16,1.24864865 C1.56,1.07837838 0.96,0.851351351 0.42,0.510810811 C0.48,0.567567568 0.42,0.567567568 0.42,0.567567568 Z" id="Fill-3"></path>
                        </g>
                    </g>
                    <g id="Page-1_1_" transform="translate(22.000000, 0.000000)" fill="#666666">
                        <path d="M67.5405405,3.85 L68.1722973,3.85 L80.0033784,3.85 C80.75,3.85 81.3243243,4.43333333 81.3243243,5.19166667 L81.3243243,8.05 L81.3243243,12.25 L81.3243243,15.4583333 L82.5304054,15.4583333 C83.3344595,15.4583333 83.9662162,14.8166667 83.9662162,14 L83.9662162,12.25 L83.9662162,8.10833333 L83.9662162,3.85 L83.9662162,3.675 C83.9662162,2.56666667 83.0472973,1.63333333 81.9560811,1.63333333 L81.3243243,1.63333333 L68.1722973,1.63333333 L68.1722973,0.466666667 L65.5878378,0.466666667 L65.5878378,1.80833333 C65.5304054,2.975 66.4493243,3.85 67.5405405,3.85" id="Fill-4"></path>
                        <path d="M68.1722973,8.63333333 L74.9493243,8.63333333 C74.9493243,8.63333333 74.9493243,8.63333333 74.9493243,8.63333333 C74.9493243,8.63333333 74.9493243,8.63333333 74.9493243,8.63333333 L75.0067568,8.63333333 C75.6959459,8.69166667 76.2702703,9.275 76.2702703,9.975 C76.2702703,9.975 76.2702703,10.0333333 76.2702703,10.0333333 L76.2702703,13.125 L68.1722973,13.125 L68.1722973,8.63333333 Z M79.2567568,18.1416667 L71.4459459,18.1416667 L68.1148649,18.0833333 L68.1148649,15.4 L76.1554054,15.4 L76.7871622,15.4 C76.7871622,15.4 76.7871622,15.4 76.8445946,15.4 C77.9358108,15.4 78.8547297,14.4666667 78.8547297,13.3583333 C78.8547297,13.3583333 78.8547297,13.3583333 78.8547297,13.3583333 L78.8547297,13.1833333 L78.8547297,8.69166667 L78.8547297,8.51666667 C78.8547297,7.40833333 77.9358108,6.475 76.8445946,6.475 L76.2128378,6.475 L68.1148649,6.475 L67.4831081,6.475 C66.3918919,6.475 65.472973,7.40833333 65.472973,8.51666667 L65.472973,18.4333333 C65.472973,19.5416667 66.3344595,20.475 67.4831081,20.475 L68.1148649,20.475 L71.4459459,20.475 L79.2567568,20.475 L83.6790541,20.475 C84.4256757,20.475 85,19.8916667 85,19.1333333 L85,18.2583333 L79.2567568,18.2583333 L79.2567568,18.1416667 Z" id="Fill-6"></path>
                        <path d="M14.472973,7.7 C15.2195946,7.7 15.7939189,8.28333333 15.7939189,9.04166667 L15.7939189,11.7833333 L3.44594595,11.7833333 L3.44594595,7.7 L14.472973,7.7 Z M15.7939189,18.1416667 L3.50337838,18.1416667 L3.50337838,14.0583333 L14.472973,14.0583333 C15.2195946,14.0583333 15.7939189,14.6416667 15.7939189,15.4 L15.7939189,18.1416667 Z M13.0371622,0.466666667 L6.375,0.466666667 L0,0.466666667 L0,1.34166667 C0,2.1 0.574324324,2.68333333 1.32094595,2.68333333 L6.375,2.68333333 L8.6722973,2.68333333 L7.86824324,5.425 L3.56081081,5.425 L2.92905405,5.425 C1.83783784,5.425 0.918918919,6.35833333 0.918918919,7.46666667 L0.918918919,11.8416667 L0.918918919,14.1166667 L0.918918919,18.3166667 C0.918918919,19.425 1.78040541,20.3 2.87162162,20.3583333 L16.3682432,20.3583333 C16.4256757,20.3583333 16.4256757,20.3583333 16.4831081,20.3583333 C17.5743243,20.3583333 18.4932432,19.425 18.4932432,18.3166667 L18.4932432,18.1416667 L18.4932432,14.175 L18.4932432,11.9 L18.4932432,7.75833333 L18.4932432,7.58333333 C18.4932432,6.475 17.5743243,5.54166667 16.4831081,5.54166667 C16.4256757,5.54166667 16.3682432,5.54166667 16.3682432,5.54166667 L15.9087838,5.54166667 L10.625,5.54166667 L11.4290541,2.8 L13.0945946,2.8 L18.1486486,2.8 C18.8952703,2.8 19.4695946,2.21666667 19.4695946,1.45833333 L19.4695946,0.466666667 L13.0371622,0.466666667 Z" id="Fill-1_1_"></path>
                        <path d="M40.0304054,6.94166667 L41.2939189,6.94166667 L41.2939189,4.84166667 L40.0304054,4.84166667 L40.0304054,4.31666667 L37.4459459,4.31666667 L37.4459459,4.84166667 L29.4628378,4.84166667 L29.4628378,4.31666667 L26.8783784,4.31666667 L26.8783784,4.84166667 L25.6148649,4.84166667 L25.6148649,6.88333333 L26.8783784,6.88333333 L26.8783784,8.16666667 L26.8783784,8.34166667 C26.8783784,9.45 27.7972973,10.3833333 28.8885135,10.3833333 C28.8885135,10.3833333 28.8885135,10.3833333 28.8885135,10.3833333 L29.4628378,10.3833333 L37.3885135,10.3833333 L38.0202703,10.3833333 C38.0202703,10.3833333 38.0202703,10.3833333 38.0202703,10.3833333 C39.1114865,10.3833333 40.0304054,9.45 40.0304054,8.34166667 C40.0304054,8.34166667 40.0304054,8.28333333 40.0304054,8.28333333 L40.0304054,8.16666667 L40.0304054,6.94166667 Z M37.3885135,8.28333333 L29.4628378,8.28333333 L29.4628378,6.88333333 L37.3885135,6.88333333 L37.3885135,8.28333333 Z" id="Shape"></path>
                        <path d="M33.6554054,1.34166667 L33.6554054,0.466666667 L31.0135135,0.466666667 L31.0135135,1.34166667 L24.4087838,1.34166667 L23.8344595,1.34166667 C23.8344595,1.34166667 23.777027,1.34166667 23.777027,1.34166667 C23.777027,1.34166667 23.7195946,1.34166667 23.7195946,1.34166667 L23.6621622,1.34166667 C22.6283784,1.4 21.8243243,2.275 21.7668919,3.325 L21.7668919,3.55833333 L21.7668919,20.3583333 L22.972973,20.3583333 C23.777027,20.3583333 24.4087838,19.7166667 24.4087838,18.9 L24.4087838,4.95833333 C24.4087838,4.95833333 24.4087838,4.95833333 24.4087838,4.95833333 C24.4087838,4.2 24.9831081,3.61666667 25.7297297,3.61666667 L41.1790541,3.61666667 L41.1790541,1.34166667 L33.6554054,1.34166667 Z" id="Fill-11"></path>
                        <path d="M40.9493243,13.475 C41.1216216,13.3 41.1790541,12.95 41.1790541,12.7166667 C41.1790541,12.075 40.6621622,11.6083333 40.0878378,11.6083333 L39.3986486,11.6083333 L25.6148649,11.6083333 L25.6148649,13.65 L37.9054054,13.65 C37.3310811,14.2916667 36.1824324,15.2833333 35.2635135,15.8666667 C33.3108108,14.9916667 31.6452703,14.5833333 30.2094595,14.5833333 C28.4290541,14.5833333 27.1081081,14.9333333 26.3040541,15.6916667 C26.3040541,15.6916667 26.3040541,15.6916667 26.3040541,15.6916667 C25.8445946,16.1583333 25.5574324,16.7416667 25.5574324,17.4416667 C25.5574324,18.1416667 25.8445946,18.725 26.2466216,19.1916667 C26.2466216,19.1916667 26.2466216,19.1916667 26.2466216,19.1916667 C26.9932432,19.95 28.2567568,20.3583333 30.2094595,20.3583333 C31.7027027,20.3583333 33.8851351,19.6 35.3783784,18.4916667 C36.4695946,19.0166667 37.2162162,19.425 38.7668919,20.1833333 C39.5709459,20.5916667 40.2601351,20.3583333 40.6621622,19.7166667 L41.1216216,18.9583333 C41.1216216,18.9583333 37.9054054,17.325 37.1587838,16.9166667 C38.8817568,15.575 40.8344595,13.65 40.9493243,13.475 M29.6351351,18.9 C28.3141892,18.9 27.0506757,18.4916667 27.0506757,17.3833333 C27.0506757,16.275 28.4864865,15.9833333 29.6351351,15.9833333 C30.7837838,15.9833333 32.9662162,17.0333333 33.2533784,17.3833333 C32.9662162,17.7916667 30.6689189,18.9 29.6351351,18.9" id="Fill-12"></path>
                        <path d="M46.2905405,0.7 L43.6486486,0.7 L43.6486486,2.33333333 L43.6486486,2.50833333 C43.6486486,3.61666667 44.5675676,4.55 45.6587838,4.55 L50.1959459,4.55 L50.1959459,2.33333333 L46.2905405,2.33333333 L46.2905405,0.7 Z" id="Fill-13"></path>
                        <path d="M44.2804054,7.7 L44.7398649,7.7 C45.4864865,7.7 46.0608108,8.28333333 46.0608108,9.04166667 C46.0608108,9.04166667 46.0608108,9.04166667 46.0608108,9.04166667 L46.0608108,10.0333333 L44.0506757,10.0333333 L44.0506757,12.25 L44.7398649,12.25 C45.4864865,12.25 46.0608108,12.8333333 46.0608108,13.5916667 C46.0608108,13.5916667 46.0608108,13.5916667 46.0608108,13.65 L46.0608108,17.7916667 L46.0608108,17.9666667 C46.0608108,17.9666667 46.0608108,17.9666667 46.0608108,17.9666667 C46.0608108,17.9666667 46.0608108,17.9666667 46.0608108,17.9666667 C46.0608108,19.075 46.9797297,20.0083333 48.0709459,20.0083333 L50.2533784,20.0083333 L50.2533784,17.7333333 L49.7364865,17.7333333 C48.9898649,17.7333333 48.4155405,17.15 48.4155405,16.3916667 L48.4155405,12.25 L50.2533784,12.25 L50.2533784,9.975 L48.4155405,9.975 L48.4155405,7.64166667 L50.2533784,7.64166667 L50.2533784,5.425 L44.2804054,5.425 L44.2804054,7.7 Z" id="Fill-14"></path>
                        <path d="M63.1182432,19.0166667 L63.1182432,20.3 C63.1182432,20.3 60.3040541,19.425 57.8344595,16.5666667 L54.3885135,18.3166667 C53.6993243,18.6666667 52.8378378,18.375 52.4932432,17.675 L51.9763514,16.5666667 L56.2837838,14.4083333 C55.4797297,13.0083333 54.7905405,11.3166667 54.3885135,9.275 L51.0574324,9.275 L51.0574324,7 L54.1013514,7 C53.9864865,6.41666667 53.9864865,5.775 53.9864865,5.13333333 L53.9864865,4.49166667 L51,4.49166667 L51,2.275 L53.9864865,2.275 L53.9864865,0.408333333 L56.4560811,0.408333333 L56.4560811,2.275 L56.7432432,2.275 L60.5912162,2.275 L60.5912162,0.816666667 L63.1756757,0.816666667 L63.1756757,4.375 L63.1756757,4.49166667 L57.4324324,4.49166667 L56.5709459,4.49166667 C56.5709459,4.66666667 56.5135135,5.65833333 56.6858108,7.05833333 L63.2331081,7.05833333 L63.2331081,9.33333333 L56.972973,9.33333333 C57.3175676,10.5583333 57.777027,11.9583333 58.5810811,13.3 L63.1182432,11.025 L63.1182432,14 L60.1891892,15.4583333 C60.7635135,16.1 61.4527027,16.7416667 62.2567568,17.325 C62.2567568,17.2666667 63.0608108,17.6166667 63.1182432,19.0166667" id="Fill-15"></path>
                    </g>
                </g>
            </g>
        </g>
    </g>
</svg>